# xmcd
#
# Track frame offsets:
#	150
#	17523
#	34902
#	46958
#	63519
#	79328
#	94832
#	110591
#	125641
#	142648
#	158530
#	175805
#	189792
#	202059
#	215746
#	230500
#	244622
#	260774
#	276767
#	293111
#	310097
#	324746
#
# Disc length: 4530 seconds
#
# Revision: 0
# Processed by: cddbd v1.5.2PL0 Copyright (c) Steve Scherf et al.
# Submitted via: EasyCDDAExtractor 11.5.0.1
#
DISCID=3d11b016
DTITLE=Various Artist - NCT 086
DYEAR=2006
DGENRE=Country
TTITLE0=Pat Green - Feels Just Like It Should
TTITLE1=Brooks and Dunn - Building Bridges
TTITLE2=Sawyer Brown - Keep Your Hands To Yourself
TTITLE3=SheDaisy - In Terms Of Love
TTITLE4=Big and Rich - 8th Of November
TTITLE5=Clint Black - Heartaches
TTITLE6=Honeybrowne - Take Me Home, Country Roads
TTITLE7=Brice Long - Meat And Potato Man
TTITLE8=Trent Tomlinson - One Wing In The Fire
TTITLE9=Brian McComas - Good Good Lovin
TTITLE10=Bomshel - Ain't My Day To Care
TTITLE11=Mark McGuinn - Deep
TTITLE12=Jack Ingram - Love You
TTITLE13=Doug Stone - Let The Light Shine On You
TTITLE14=Luke Strickland - Does That Make Me Bad
TTITLE15=Kate Russell - Powerful Stuff
TTITLE16=Sonny Burgess - The More I'm Around Some People (The More I Like My D
TTITLE16=og)
TTITLE17=Heartland - I Loved Her First
TTITLE18=Sammy Kershaw - Tennessee Girl
TTITLE19=Craig Hand - Direct Connect
TTITLE20=Memarie - The Hole In Willie's Guitar
TTITLE21=Pirates Of The Mississippi - Drinkin' Money (TGI Party Time)
EXTD=
EXTT0=
EXTT1=
EXTT2=
EXTT3=
EXTT4=
EXTT5=
EXTT6=
EXTT7=
EXTT8=
EXTT9=
EXTT10=
EXTT11=
EXTT12=
EXTT13=
EXTT14=
EXTT15=
EXTT16=
EXTT17=
EXTT18=
EXTT19=
EXTT20=
EXTT21=
PLAYORDER=
